<?xml version="1.0" standalone="no"?>
<!DOCTYPE svg PUBLIC "-//W3C//DTD SVG 20010904//EN"
 "http://www.w3.org/TR/2001/REC-SVG-20010904/DTD/svg10.dtd">
<svg version="1.0" xmlns="http://www.w3.org/2000/svg"
 width="1024.000000pt" height="1024.000000pt" viewBox="0 0 1024.000000 1024.000000"
 preserveAspectRatio="xMidYMid meet">
<metadata>
Created by potrace 1.14, written by Peter Selinger 2001-2017
</metadata>
<g transform="translate(0.000000,1024.000000) scale(0.100000,-0.100000)"
fill="#000000" stroke="none">
<path d="M5520 6709 c-157 -166 -191 -203 -329 -348 -75 -79 -146 -155 -159
-168 -30 -31 -22 -33 111 -30 69 1 112 -2 118 -9 5 -6 7 -13 5 -15 -2 -2 -7
-40 -11 -84 -3 -44 -8 -93 -11 -110 -2 -16 -6 -57 -9 -90 -6 -70 -11 -126 -21
-210 -3 -33 -8 -71 -9 -85 -1 -14 -6 -59 -10 -100 -4 -41 -9 -86 -10 -100 -1
-14 -5 -49 -9 -77 -3 -29 -8 -77 -11 -105 -5 -53 -15 -119 -20 -148 -23 -111
-126 -210 -245 -236 -107 -22 -225 5 -287 66 -70 68 -85 159 -59 375 2 17 7
59 10 95 4 36 9 76 11 90 2 14 7 59 10 100 4 41 8 89 10 105 2 17 6 57 9 90 4
33 8 76 11 95 5 39 12 107 20 190 11 112 17 165 20 170 2 3 0 12 -4 19 -6 10
-67 12 -271 12 -145 -1 -266 -4 -269 -6 -6 -7 -8 -21 -16 -100 -3 -33 -8 -76
-10 -95 -2 -19 -6 -62 -9 -95 -7 -69 -12 -117 -22 -197 -6 -57 -8 -77 -18
-178 -14 -141 -26 -254 -33 -295 -9 -55 -11 -318 -2 -349 4 -17 11 -46 14 -65
33 -191 234 -386 430 -417 22 -3 43 -8 47 -10 28 -17 446 -25 538 -10 215 35
361 118 503 287 26 31 47 59 47 62 0 3 12 28 28 54 27 48 62 141 81 218 9 37
16 87 26 182 2 21 7 61 10 88 2 28 7 68 10 90 2 22 7 67 10 100 3 33 8 80 11
105 2 25 6 68 9 95 3 28 8 73 11 100 3 28 7 70 9 95 2 25 6 65 9 90 3 25 8 74
12 110 9 85 9 88 16 95 3 4 62 7 131 8 83 1 123 5 119 12 -3 5 -29 40 -57 77
-27 36 -57 76 -65 88 -8 13 -39 54 -67 91 -29 38 -53 71 -53 74 0 4 -9 16 -53
68 -10 12 -26 34 -35 50 -9 15 -20 27 -24 27 -4 0 -8 5 -8 10 0 8 -98 141
-103 140 -1 0 -40 -41 -87 -91z"/>
<path d="M676 6177 c-9 -16 -16 -33 -16 -38 0 -8 -53 -149 -80 -214 -4 -11
-40 -106 -79 -211 -39 -105 -76 -204 -82 -220 -7 -16 -13 -31 -14 -34 -6 -24
-18 -59 -25 -75 -5 -11 -57 -148 -115 -305 -58 -157 -110 -294 -114 -305 -9
-22 -39 -99 -100 -265 -39 -104 -39 -105 -18 -111 12 -3 26 -4 31 -1 8 4 39 4
176 0 8 0 33 0 55 1 22 1 91 1 154 1 63 -1 117 3 121 7 4 4 21 55 39 113 18
58 38 121 44 140 l13 34 299 1 c165 0 307 -1 315 -3 11 -2 30 -50 59 -147 l44
-143 41 0 c22 0 46 -1 51 -2 6 -1 15 -1 20 0 15 3 227 1 255 -3 14 -2 30 -1
35 2 6 3 47 4 92 3 l83 -2 -35 98 c-19 53 -40 106 -45 117 -8 17 -64 167 -74
200 -2 6 -6 17 -9 25 -9 21 -107 283 -111 295 -2 6 -7 19 -11 30 -4 11 -21 56
-37 100 -16 44 -43 114 -59 155 -16 41 -29 78 -29 82 0 4 -5 19 -12 35 -6 15
-12 30 -13 33 -1 3 -5 12 -8 20 -3 8 -16 42 -28 75 -11 33 -27 74 -34 90 -7
17 -16 41 -20 55 -3 14 -10 34 -15 45 -5 11 -23 58 -40 105 -74 200 -84 225
-91 233 -3 5 -139 9 -302 10 l-295 2 -16 -28z m317 -482 c2 -11 7 -27 10 -35
3 -8 20 -62 37 -120 43 -143 98 -325 115 -382 25 -78 37 -73 -179 -73 l-193 0
9 30 c5 17 11 37 13 45 1 8 19 69 40 135 20 66 38 127 40 135 2 8 23 79 47
157 41 134 52 154 61 108z"/>
<path d="M2153 6196 c-7 -11 -7 -1785 0 -1793 3 -3 187 -5 409 -4 420 2 430 2
451 0 13 -1 81 8 137 18 19 3 42 7 50 8 8 1 31 6 50 10 44 11 41 10 65 19 11
5 37 14 58 22 84 32 267 184 267 223 0 5 4 11 8 13 14 6 70 111 91 173 70 206
75 524 12 775 -19 79 -88 220 -134 277 -131 160 -293 241 -523 259 -121 10
-935 10 -941 0z m782 -410 c89 -10 158 -39 202 -86 83 -88 120 -293 99 -540
-19 -220 -104 -328 -272 -345 -35 -3 -224 -8 -250 -6 -6 1 -11 13 -11 29 -5
106 -4 942 0 949 6 9 142 8 232 -1z"/>
<path d="M6277 6202 l-97 -3 2 -897 3 -897 37 -6 c21 -3 40 -3 43 -1 5 5 163
6 175 2 3 -2 10 -1 15 0 24 5 233 3 241 -3 6 -3 16 -2 23 2 10 7 13 85 15 372
l1 364 345 0 345 0 0 180 0 180 -345 5 -345 5 0 155 0 155 402 0 c379 0 402 1
407 18 7 28 4 344 -4 357 -5 7 -176 11 -586 13 -318 1 -623 1 -677 -1z"/>
<path d="M7867 6202 c-13 -3 -17 -14 -18 -45 -3 -255 0 -1749 5 -1754 5 -5
434 -6 503 0 17 1 35 5 38 9 4 4 8 152 9 330 l1 323 210 2 c210 2 282 10 385
40 98 30 199 95 245 157 29 40 84 132 84 142 0 2 7 30 17 62 27 91 27 249 0
352 -30 112 -57 163 -125 230 -68 68 -151 110 -271 137 -61 13 -1021 27 -1083
15z m786 -376 c115 -15 184 -97 175 -209 -6 -67 -40 -121 -94 -147 -58 -29
-73 -31 -210 -37 l-120 -5 2 203 c1 112 2 204 3 205 5 3 206 -5 244 -10z"/>
<path d="M9735 6200 l-50 -5 0 -894 c0 -886 0 -894 20 -898 16 -2 274 -4 483
-2 36 0 42 4 43 22 4 93 1 1769 -3 1773 -7 7 -430 10 -493 4z"/>
<path d="M1659 4237 c-21 -16 -30 -64 -13 -71 7 -3 23 3 36 13 20 17 26 17 59
6 73 -26 97 -26 119 2 38 49 13 87 -31 47 -17 -15 -22 -15 -65 0 -56 19 -83
20 -105 3z"/>
<path d="M129 4110 c-82 -28 -113 -69 -110 -144 4 -77 45 -113 176 -150 103
-30 125 -44 123 -77 -4 -46 -38 -72 -96 -72 -62 0 -87 14 -112 64 -12 22 -25
37 -31 33 -6 -3 -26 -6 -45 -6 -40 0 -42 -10 -14 -76 32 -73 101 -108 207
-104 141 4 218 86 192 203 -16 69 -78 111 -196 135 -75 15 -120 52 -102 85 11
21 70 40 102 33 12 -3 28 -6 36 -6 7 -1 22 -16 32 -33 17 -28 23 -31 66 -31
41 1 48 4 48 21 1 100 -149 168 -276 125z"/>
<path d="M1193 4119 c-120 -22 -191 -111 -199 -251 -7 -122 40 -218 129 -264
43 -22 46 -27 36 -46 -10 -19 -9 -20 16 -14 15 4 35 4 45 1 21 -7 34 -45 17
-50 -7 -2 -21 -6 -32 -10 -11 -4 -37 -7 -57 -6 -32 2 -36 0 -31 -18 3 -11 8
-20 12 -19 3 0 11 -1 16 -2 47 -10 139 15 157 44 14 20 8 56 -11 75 -18 18
-18 19 22 32 51 17 100 63 121 114 9 20 16 39 16 41 0 4 -72 24 -88 24 -7 0
-19 -15 -27 -34 -38 -90 -165 -91 -212 -2 -10 18 -18 62 -20 105 -5 127 40
191 135 191 43 0 87 -27 97 -60 7 -22 23 -24 77 -10 36 10 36 12 26 41 -29 82
-140 136 -245 118z"/>
<path d="M2242 4114 c-119 -35 -182 -123 -184 -259 -2 -148 74 -254 197 -272
122 -18 202 11 271 99 38 48 51 187 26 275 -12 40 -48 93 -82 120 -45 37 -164
56 -228 37z m175 -128 c18 -20 33 -44 34 -53 0 -10 3 -27 5 -38 10 -39 2 -109
-18 -156 -34 -79 -165 -96 -230 -29 -54 56 -56 209 -5 274 51 63 157 65 214 2z"/>
<path d="M2992 4119 c-92 -19 -145 -80 -137 -158 8 -74 57 -116 175 -146 67
-17 119 -40 121 -53 0 -4 2 -15 4 -26 5 -24 -41 -66 -74 -67 -82 -5 -108 7
-136 59 -20 37 -23 38 -85 29 -20 -3 -22 -11 -14 -53 9 -47 62 -100 116 -115
111 -31 242 2 274 69 35 74 24 153 -27 196 -17 14 -69 38 -117 52 -148 45
-167 62 -117 108 45 42 143 21 160 -35 5 -14 16 -17 55 -16 44 1 50 4 50 22 0
33 -35 88 -67 106 -51 29 -125 40 -181 28z"/>
<path d="M5024 4119 c-51 -6 -103 -29 -133 -59 -100 -96 -103 -317 -7 -413
113 -113 316 -83 371 55 16 42 16 48 -7 52 -7 2 -21 6 -30 9 -43 16 -47 15
-57 -15 -28 -79 -129 -106 -189 -50 -37 35 -52 87 -48 172 5 109 48 160 135
160 43 0 95 -34 106 -70 5 -16 10 -18 25 -10 10 6 27 10 37 10 40 0 46 15 21
58 -13 22 -34 49 -48 60 -39 30 -118 49 -176 41z"/>
<path d="M8775 4123 c-96 -16 -163 -63 -166 -116 -4 -62 3 -93 29 -120 35 -37
59 -49 160 -77 95 -26 120 -49 103 -93 -13 -35 -43 -49 -104 -50 -44 0 -54 3
-79 31 -15 18 -28 39 -28 47 0 19 -30 22 -87 10 -21 -5 -21 -6 -7 -49 31 -91
98 -130 221 -128 111 1 182 58 191 152 9 95 -33 138 -178 179 -41 12 -85 27
-97 33 -52 26 -25 86 42 92 55 4 91 -10 104 -42 10 -25 17 -27 62 -28 l51 0
-6 34 c-7 44 -29 78 -64 96 -32 17 -118 33 -147 29z"/>
<path d="M9420 4111 c-59 -21 -83 -39 -104 -78 -20 -40 -20 -62 0 -113 15 -36
62 -78 97 -84 56 -11 165 -52 179 -68 33 -38 -6 -97 -66 -99 -80 -3 -110 11
-129 60 -15 35 -16 36 -61 33 -41 -4 -46 -7 -46 -28 0 -86 92 -156 205 -157
125 -1 202 52 212 147 11 96 -31 140 -176 185 -92 29 -131 50 -131 71 0 4 8
18 19 31 14 18 28 22 69 22 53 0 86 -18 97 -53 4 -13 17 -17 55 -17 47 -1 50
1 50 24 0 97 -150 166 -270 124z"/>
<path d="M626 4113 c-1 -1 -26 -3 -54 -4 l-52 -2 -1 -46 c-2 -72 -1 -318 2
-398 l2 -73 56 -1 c63 -1 259 0 307 0 30 1 32 3 30 39 0 20 -4 39 -8 42 -3 3
-67 5 -142 4 -88 0 -136 3 -139 10 -2 6 -3 38 -3 71 l1 60 120 3 c66 1 125 4
132 7 9 3 12 46 4 76 0 3 -57 5 -126 5 -104 -1 -125 1 -126 14 -4 47 -4 86 -2
96 3 7 46 10 121 9 159 -1 162 -1 159 41 -2 18 -5 36 -8 38 -5 5 -269 13 -273
9z"/>
<path d="M4102 4105 c-9 -14 -10 -498 -1 -510 5 -6 59 -9 139 -8 110 2 139 6
175 23 75 36 117 124 117 245 0 121 -59 223 -141 245 -52 14 -281 18 -289 5z
m280 -112 c45 -45 57 -162 27 -255 -7 -21 -18 -38 -25 -38 -7 0 -14 -5 -16
-11 -4 -12 -168 -22 -169 -11 0 4 0 36 1 72 1 100 1 102 -1 145 -1 22 -1 61 0
87 l1 46 77 -3 c68 -4 80 -7 105 -32z"/>
<path d="M7083 4112 l-33 -3 0 -258 0 -259 28 -4 c15 -2 37 -1 49 2 20 5 21 9
20 167 -1 90 1 163 5 163 4 0 32 -42 63 -92 112 -186 136 -223 150 -234 12 -9
27 -10 91 -5 7 1 11 81 11 261 l0 260 -48 0 -49 0 -2 -172 -3 -173 -97 159
c-54 87 -98 162 -98 166 0 13 -52 26 -87 22z"/>
<path d="M7601 4109 c-15 -6 -17 -29 -16 -259 1 -175 5 -254 13 -259 13 -8
222 -6 266 3 45 8 104 52 125 94 34 67 45 163 28 237 -5 22 -10 45 -11 50 -1
6 -12 27 -24 47 -42 68 -93 87 -250 90 -62 2 -121 0 -131 -3z m265 -107 c33
-24 46 -62 49 -139 5 -143 -32 -190 -151 -189 l-69 1 -2 172 -2 172 27 3 c52
7 125 -3 148 -20z"/>
<path d="M8203 4112 l-83 -3 -1 -67 c-1 -138 -1 -300 1 -374 2 -72 4 -78 24
-79 19 0 236 0 333 1 l43 0 -3 42 -2 42 -142 0 c-96 -1 -143 2 -145 10 -2 6
-4 38 -3 71 l0 60 130 5 130 5 1 37 c1 20 -4 39 -10 41 -6 2 -64 3 -129 3
-127 -1 -120 -5 -119 59 0 67 -10 63 133 61 72 0 134 1 137 4 14 10 13 80 0
80 -88 4 -230 4 -295 2z"/>
<path d="M1656 4008 c-21 -57 -43 -107 -47 -113 -5 -5 -9 -17 -9 -27 0 -10 -4
-26 -10 -36 -5 -9 -29 -67 -53 -129 l-44 -111 53 -4 53 -3 26 61 26 61 102 -3
c127 -2 117 0 117 -23 0 -11 4 -22 9 -26 5 -3 12 -19 16 -35 6 -29 8 -30 66
-30 l59 0 -17 38 c-8 20 -19 46 -23 57 -5 11 -15 36 -23 55 -8 19 -45 110 -82
203 l-68 167 -56 0 -56 0 -39 -102z m134 -118 c16 -46 30 -86 30 -89 0 -5
-128 -7 -137 -2 -3 1 55 160 63 173 9 14 11 9 44 -82z"/>
<path d="M3357 4103 c-3 -5 -5 -121 -5 -260 -1 -200 2 -252 13 -256 12 -5 76
1 83 8 3 3 5 370 2 493 0 19 -5 22 -44 22 -25 0 -47 -3 -49 -7z"/>
<path d="M3560 4033 c0 -43 0 -85 0 -93 -1 -14 -1 -203 0 -245 0 -11 0 -39 0
-63 l-1 -43 48 3 48 3 0 157 c0 86 3 159 6 162 3 3 27 -31 55 -75 27 -44 56
-91 64 -104 8 -13 32 -52 53 -87 l38 -63 49 0 c35 0 50 4 53 15 3 13 2 481 -2
503 0 5 -20 7 -43 5 l-43 -3 -2 -60 c-1 -33 -3 -108 -4 -167 -2 -60 -4 -108
-4 -108 -6 0 -85 130 -85 139 0 6 -4 11 -9 11 -5 0 -11 8 -15 18 -3 9 -27 51
-54 92 l-48 75 -52 3 -52 3 0 -78z"/>
<path d="M4628 4098 c-8 -21 -3 -496 5 -504 11 -11 86 -11 90 1 2 5 3 123 3
260 l-1 250 -46 3 c-31 2 -48 -1 -51 -10z"/>
<path d="M5512 4093 c-5 -10 -29 -67 -51 -128 -23 -60 -51 -130 -61 -155 -38
-94 -80 -205 -80 -215 0 -11 81 -12 98 -1 5 3 18 28 28 56 10 27 20 51 23 51
20 5 202 5 208 0 5 -3 17 -28 28 -56 10 -27 22 -52 27 -56 7 -4 24 -4 95 0 6
1 -33 111 -92 259 l-104 257 -55 3 c-44 2 -57 0 -64 -15z m97 -199 c17 -47 31
-88 31 -92 0 -6 -127 -9 -137 -3 -3 1 55 160 63 172 3 5 7 9 9 9 2 0 17 -38
34 -86z"/>
<path d="M5909 4106 c-1 0 -2 -117 -3 -258 -1 -252 -1 -258 19 -259 76 -2 337
0 340 3 5 5 7 30 6 59 l-1 25 -125 -1 c-69 0 -129 2 -133 5 -4 3 -7 100 -7
215 l0 210 -47 1 c-27 1 -49 1 -49 0z"/>
<path d="M6566 3855 c-54 -141 -96 -258 -95 -260 5 -4 47 -7 81 -6 24 1 29 7
43 55 9 30 21 56 28 58 10 4 191 3 208 -1 3 0 14 -26 24 -56 11 -30 24 -56 30
-56 17 -2 98 1 101 3 1 2 -18 50 -42 108 -24 58 -44 106 -44 107 -1 4 -11 31
-66 168 l-52 130 -58 3 -59 2 -99 -255z m194 39 c17 -47 29 -88 25 -92 -9 -9
-115 -10 -121 0 -6 10 22 107 37 124 6 8 8 14 5 14 -4 0 -2 9 4 20 6 11 12 20
14 20 2 0 18 -39 36 -86z"/>
<path d="M9809 4108 c-1 -2 -2 -119 -3 -261 l-1 -257 25 -2 c32 -2 63 1 68 7
2 2 4 77 3 166 -1 143 1 160 14 149 8 -7 15 -18 15 -25 0 -8 4 -15 8 -17 4 -1
43 -61 86 -131 43 -71 84 -134 91 -141 12 -12 90 -14 102 -3 9 9 4 500 -5 509
-5 5 -27 8 -48 6 l-39 -3 0 -157 c0 -87 -4 -159 -9 -160 -8 -3 -51 63 -161
245 l-47 77 -49 0 c-27 0 -49 -1 -50 -2z"/>
</g>
</svg>
